<?xml version="1.0" encoding="utf-8"?>
<!-- Generator: Adobe Illustrator 25.2.0, SVG Export Plug-In . SVG Version: 6.00 Build 0)  -->
<svg version="1.1" id="Layer_1" xmlns="http://www.w3.org/2000/svg" xmlns:xlink="http://www.w3.org/1999/xlink" x="0px" y="0px"
	 viewBox="0 0 16 16" style="enable-background:new 0 0 16 16;" xml:space="preserve">
<style type="text/css">
	.st0{fill:none;stroke:#0275B1;stroke-linecap:round;stroke-linejoin:round;}
</style>
<path class="st0" d="M8,14.7c3.7,0,6.7-3,6.7-6.7c0-3.7-3-6.7-6.7-6.7c-3.7,0-6.7,3-6.7,6.7C1.3,11.7,4.3,14.7,8,14.7z"/>
<path class="st0" d="M6.1,6c0.2-0.4,0.5-0.8,0.9-1.1c0.4-0.2,0.9-0.3,1.4-0.2C8.8,4.8,9.2,5,9.5,5.4c0.3,0.4,0.5,0.8,0.5,1.3
	c0,1.3-2,2-2,2"/>
<path class="st0" d="M8,11.3L8,11.3"/>
</svg>
