<?xml version="1.0" encoding="utf-8"?>
<!-- Generator: Adobe Illustrator 25.2.0, SVG Export Plug-In . SVG Version: 6.00 Build 0)  -->
<svg version="1.1" id="Layer_1" xmlns="http://www.w3.org/2000/svg" xmlns:xlink="http://www.w3.org/1999/xlink" x="0px" y="0px"
	 viewBox="0 0 17 17" style="enable-background:new 0 0 17 17;" xml:space="preserve">
<style type="text/css">
	.st0{clip-path:url(#SVGID_2_);}
	.st1{fill:none;stroke:#FFFFFF;stroke-linecap:round;stroke-linejoin:round;}
</style>
<g>
	<defs>
		<rect id="SVGID_1_" x="0.6" y="0.2" width="16" height="16"/>
	</defs>
	<clipPath id="SVGID_2_">
		<use xlink:href="#SVGID_1_"  style="overflow:visible;"/>
	</clipPath>
	<g class="st0">
		<path class="st1" d="M8.6,10.2c1.1,0,2-0.9,2-2s-0.9-2-2-2s-2,0.9-2,2S7.5,10.2,8.6,10.2z"/>
		<path class="st1" d="M13.5,10.2c-0.1,0.2-0.1,0.4-0.1,0.6c0,0.2,0.1,0.4,0.3,0.6l0,0c0.1,0.1,0.2,0.3,0.3,0.4
			c0.1,0.2,0.1,0.3,0.1,0.5c0,0.2,0,0.3-0.1,0.5c-0.1,0.2-0.2,0.3-0.3,0.4c-0.1,0.1-0.3,0.2-0.4,0.3c-0.2,0.1-0.3,0.1-0.5,0.1
			c-0.2,0-0.3,0-0.5-0.1c-0.2-0.1-0.3-0.2-0.4-0.3l0,0c-0.2-0.2-0.4-0.3-0.6-0.3c-0.2,0-0.4,0-0.6,0.1c-0.2,0.1-0.4,0.2-0.5,0.4
			C10,13.6,10,13.8,10,14v0.1c0,0.4-0.1,0.7-0.4,0.9c-0.3,0.3-0.6,0.4-0.9,0.4c-0.4,0-0.7-0.1-0.9-0.4c-0.3-0.2-0.4-0.6-0.4-0.9
			v-0.1c0-0.2-0.1-0.4-0.2-0.6c-0.1-0.2-0.3-0.3-0.5-0.4C6.4,13,6.2,13,5.9,13s-0.4,0.1-0.6,0.3l0,0c-0.1,0.1-0.3,0.2-0.4,0.3
			c-0.2,0.1-0.3,0.1-0.5,0.1s-0.3,0-0.5-0.1c-0.2-0.1-0.3-0.2-0.4-0.3c-0.1-0.1-0.2-0.3-0.3-0.4C3.1,12.8,3,12.6,3,12.4
			c0-0.2,0-0.3,0.1-0.5c0.1-0.2,0.2-0.3,0.3-0.4l0,0c0.2-0.2,0.3-0.4,0.3-0.6c0-0.2,0-0.4-0.1-0.6C3.6,10,3.5,9.8,3.3,9.7
			S2.9,9.5,2.7,9.5H2.6c-0.4,0-0.7-0.1-0.9-0.4C1.4,8.9,1.2,8.6,1.2,8.2c0-0.4,0.1-0.7,0.4-0.9C1.9,7,2.2,6.9,2.6,6.9h0.1
			c0.2,0,0.4-0.1,0.6-0.2c0.2-0.1,0.3-0.3,0.4-0.5C3.7,6,3.8,5.7,3.7,5.5c0-0.2-0.1-0.4-0.3-0.6l0,0C3.3,4.8,3.2,4.6,3.1,4.5
			C3,4.3,3,4.1,3,4c0-0.2,0-0.3,0.1-0.5C3.2,3.3,3.3,3.1,3.4,3c0.1-0.1,0.3-0.2,0.4-0.3C4,2.7,4.2,2.6,4.3,2.6s0.3,0,0.5,0.1
			C5,2.8,5.1,2.9,5.3,3l0,0c0.2,0.2,0.4,0.3,0.6,0.3c0.2,0,0.4,0,0.6-0.1h0.1C6.8,3.2,6.9,3,7.1,2.9c0.1-0.2,0.2-0.4,0.2-0.6V2.2
			c0-0.4,0.1-0.7,0.4-0.9C7.9,1,8.2,0.8,8.6,0.8c0.4,0,0.7,0.1,0.9,0.4c0.3,0.3,0.4,0.6,0.4,0.9v0.1c0,0.2,0.1,0.4,0.2,0.6
			c0.1,0.2,0.3,0.3,0.5,0.4c0.2,0.1,0.4,0.1,0.6,0.1c0.2,0,0.4-0.1,0.6-0.3l0,0c0.1-0.1,0.3-0.2,0.4-0.3c0.2-0.1,0.3-0.1,0.5-0.1
			c0.2,0,0.3,0,0.5,0.1c0.2,0.1,0.3,0.2,0.4,0.3c0.1,0.1,0.2,0.3,0.3,0.4c0.1,0.2,0.1,0.3,0.1,0.5c0,0.2,0,0.3-0.1,0.5
			c-0.1,0.2-0.2,0.3-0.3,0.4l0,0c-0.2,0.2-0.3,0.4-0.3,0.6s0,0.4,0.1,0.6v0.1c0.1,0.2,0.2,0.4,0.4,0.5c0.2,0.1,0.4,0.2,0.6,0.2h0.1
			c0.4,0,0.7,0.1,0.9,0.4c0.3,0.3,0.4,0.6,0.4,0.9c0,0.4-0.1,0.7-0.4,0.9c-0.2,0.3-0.6,0.4-0.9,0.4h-0.1c-0.2,0-0.4,0.1-0.6,0.2
			C13.7,9.8,13.6,10,13.5,10.2L13.5,10.2z"/>
	</g>
	<use xlink:href="#SVGID_1_"  style="overflow:visible;fill:none;stroke:#FFFFFF;stroke-miterlimit:10;"/>
</g>
</svg>
